<?xml version="1.0" encoding="UTF-8"?> <svg xmlns="http://www.w3.org/2000/svg" width="32" height="32" viewBox="0 0 32 32" fill="none"><path d="M0 0H32V32H0V0Z" fill="white"></path><path d="M25.9023 21.5079L21.2063 19.9975C20.7119 19.8766 20.3412 19.2725 20.3412 18.7892V17.7621C20.6501 17.3392 20.9591 16.7955 21.2681 16.2517C21.5152 15.8288 21.8242 15.1643 22.0095 15.0434C22.9364 14.1976 23.8633 13.1101 24.1722 11.781C24.4194 10.5123 24.1722 9.90812 23.8633 9.36438C23.8633 8.33732 23.8633 6.52486 23.4925 5.19572C23.4307 3.62492 23.1218 2.71869 22.3803 1.87288C21.8242 1.32914 21.0209 1.20831 20.403 1.08748C20.1558 1.02706 19.7851 0.966646 19.6615 0.90623C18.5493 0.302077 17.437 0 16.0159 0C13.1735 0.120831 9.65143 1.81246 8.5392 4.89364C8.16846 5.79987 8.23025 7.37067 8.23025 8.57898V9.30396C7.98309 9.8477 7.67413 10.4519 7.98309 11.7206C8.29204 13.1101 9.2189 14.1372 10.1458 14.983C10.3311 15.1643 10.6401 15.7684 10.8872 16.2517C11.1962 16.7955 11.5051 17.3392 11.8141 17.7621V18.7892C11.8141 19.2725 11.4434 19.6954 10.949 19.8162L6.25295 21.3266C0.815384 22.9578 1.00076 23.8036 1.00076 26.7036V27.4286H9.52785C9.28069 27.0057 9.15711 26.5828 9.09532 26.0994C9.03353 25.7369 9.03353 25.3744 9.09532 25.0724C9.34248 23.1995 10.8255 21.7495 12.6792 21.4475C12.9263 21.387 13.1735 21.387 13.4207 21.387C13.606 21.387 13.7914 21.387 13.9768 21.4475C14.5947 21.5079 15.1508 21.7495 15.6451 21.9912C16.3248 21.6287 17.1281 21.387 17.8696 21.387C18.6111 21.387 19.2908 21.5683 19.9705 21.9308C20.7737 22.3537 21.3916 23.0182 21.8242 23.8036C22.0095 24.1661 22.1331 24.589 22.1949 25.012C22.2567 25.3744 22.2567 25.7369 22.1949 26.039V25.9786C22.1331 26.4619 22.0095 27.0057 21.7624 27.4286H30.9692C30.9692 27.0661 30.9692 27.0057 30.9692 27.0057V26.7036C31.0927 23.8036 31.0927 23.3203 25.9023 21.5079Z" fill="#0A2472"></path><path d="M20.3349 24.5675C20.0992 24.0367 19.6278 23.5648 19.0974 23.2698C18.626 23.0339 18.1546 22.9159 17.6831 22.9159C17.0938 22.9159 16.5635 23.0929 16.0331 23.3878C15.8563 23.5058 15.7385 23.6238 15.6206 23.7417L15.5617 23.8007L15.4438 23.6827C15.326 23.5648 15.2081 23.4468 15.0313 23.3878C14.6778 23.1519 14.2063 22.9749 13.7349 22.9159C13.617 22.9159 13.4992 22.8569 13.3813 22.8569C13.2045 22.8569 13.0278 22.8569 12.851 22.9159C11.5545 23.1519 10.5528 24.1546 10.376 25.4523C10.376 25.6883 10.376 25.9832 10.376 26.2191C10.4349 26.75 10.6706 27.2809 11.0242 27.6938C11.0831 27.7528 11.967 28.6376 13.2045 29.8763C15.2081 31.8818 15.267 31.9408 15.326 31.9408C15.3849 31.9408 15.4438 31.9998 15.5028 31.9998C15.6206 31.9998 15.6795 31.9998 15.7974 31.9408C15.7974 31.9408 16.7992 30.997 17.9188 29.8173C19.3331 28.4016 19.8046 27.9297 19.9813 27.6938C20.3349 27.2219 20.6295 26.809 20.6885 26.1012C20.6885 25.8652 20.6885 25.5703 20.6885 25.3344C20.5706 25.0984 20.4528 24.8035 20.3349 24.5675Z" fill="#C30B55"></path></svg> 