<?xml version="1.0" encoding="utf-8"?>
<!-- Generator: Adobe Illustrator 21.0.0, SVG Export Plug-In . SVG Version: 6.00 Build 0)  -->
<svg version="1.1" id="logo" xmlns="http://www.w3.org/2000/svg" xmlns:xlink="http://www.w3.org/1999/xlink" x="0px" y="0px"
	 viewBox="0 0 398 52.8" style="enable-background:new 0 0 398 52.8;" xml:space="preserve">
<style type="text/css">
	.st0{fill:none;}
	.st1{fill:#545454;}
	.st2{fill:#0A2472;}
	.st3{fill:#C30B55;}
</style>
<g>
	<path class="st0" d="M117.7,42.6c0.4-0.7,0.6-1.5,0.6-2.4s-0.2-1.7-0.6-2.4c-0.4-0.7-0.9-1.3-1.6-1.7c-0.7-0.4-1.5-0.6-2.3-0.6
		c-0.9,0-1.6,0.2-2.3,0.6c-0.7,0.4-1.2,1-1.6,1.7c-0.4,0.7-0.6,1.5-0.6,2.4s0.2,1.7,0.6,2.4c0.4,0.7,1,1.3,1.6,1.7
		c0.7,0.4,1.5,0.6,2.3,0.6c0.9,0,1.6-0.2,2.3-0.6C116.8,43.8,117.3,43.3,117.7,42.6z"/>
	<path class="st0" d="M281.8,14.2c-1.1,0-2.2,0.3-3.1,1c-0.4,0.3-0.8,0.8-1,1.2s-0.3,1-0.3,1.6h8.4c0-1.2-0.4-2.2-1.2-2.8
		C283.9,14.6,282.9,14.2,281.8,14.2z"/>
	<path class="st0" d="M316.2,16.7c0-1.8-0.7-3.6-2-5c-0.6-0.6-1.4-1.2-2.2-1.5c-0.8-0.4-1.7-0.5-2.6-0.5c-0.9,0-1.8,0.2-2.6,0.5
		c-0.8,0.4-1.6,0.9-2.2,1.5c-1.3,1.3-2,3.1-2,5c0,1.8,0.7,3.6,2,5c0.6,0.6,1.4,1.2,2.2,1.5c0.8,0.4,1.7,0.5,2.6,0.5
		c0.9,0,1.8-0.2,2.6-0.5c0.8-0.4,1.6-0.9,2.2-1.5C315.4,20.3,316.2,18.6,316.2,16.7z"/>
	<path class="st0" d="M227.2,21.9c0,0.3,0.1,0.6,0.2,0.9c0.1,0.3,0.4,0.5,0.6,0.7c0.7,0.4,1.5,0.6,2.3,0.6c0.9,0,1.8-0.3,2.6-0.8
		c0.4-0.3,0.6-0.6,0.8-1c0.2-0.4,0.3-0.8,0.3-1.3v-1.2h-3.5C228.3,19.8,227.2,20.5,227.2,21.9z"/>
	<path class="st0" d="M72.6,38.3c-0.8,0-1.5,0.3-2,0.8c-0.5,0.5-0.8,1.2-0.9,2h5.8c-0.1-0.8-0.4-1.5-0.9-2
		C74,38.6,73.4,38.3,72.6,38.3z"/>
	<path class="st0" d="M173.3,38.3c-0.8,0-1.5,0.3-2,0.8c-0.5,0.5-0.8,1.2-0.9,2h5.8c-0.1-0.8-0.4-1.5-0.9-2
		C174.7,38.6,174.1,38.3,173.3,38.3z"/>
	<path class="st0" d="M97.3,21.9c0,0.3,0.1,0.6,0.2,0.9c0.1,0.3,0.4,0.5,0.6,0.7c0.7,0.4,1.5,0.6,2.3,0.6c0.9,0,1.8-0.3,2.6-0.8
		c0.4-0.3,0.6-0.6,0.8-1c0.2-0.4,0.3-0.8,0.3-1.3v-1.2h-3.5C98.5,19.8,97.4,20.5,97.3,21.9z"/>
	<path class="st0" d="M137.2,38.8c-0.5-0.3-1-0.4-1.6-0.4c-0.6,0-1.1,0.1-1.6,0.4c-0.5,0.3-0.8,0.6-1.1,1.1
		c-0.3,0.5-0.4,1.1-0.4,1.7c0,0.6,0.1,1.2,0.4,1.7c0.3,0.5,0.6,0.9,1.1,1.2c0.5,0.3,1,0.4,1.6,0.4c0.6,0,1.1-0.1,1.6-0.4
		c0.5-0.3,0.8-0.7,1.1-1.2c0.3-0.5,0.4-1.1,0.4-1.7c0-0.6-0.1-1.2-0.4-1.7C138,39.4,137.6,39,137.2,38.8z"/>
	<path class="st0" d="M377,14.2c-1.1,0-2.2,0.3-3.1,1c-0.4,0.3-0.8,0.7-1,1.2c-0.2,0.5-0.4,1-0.3,1.6h0h8.4c0-1.2-0.4-2.2-1.2-2.8
		C379.1,14.6,378.1,14.2,377,14.2z"/>
	<path class="st0" d="M190.4,38.8c-0.5-0.3-1-0.4-1.6-0.4c-0.6,0-1.1,0.1-1.6,0.4c-0.5,0.3-0.8,0.6-1.1,1.1
		c-0.3,0.5-0.4,1.1-0.4,1.7c0,0.6,0.1,1.2,0.4,1.7c0.3,0.5,0.6,0.9,1.1,1.2c0.5,0.3,1,0.4,1.6,0.4c0.6,0,1.1-0.1,1.6-0.4
		c0.5-0.3,0.8-0.7,1.1-1.2c0.3-0.5,0.4-1.1,0.4-1.7c0-0.6-0.1-1.2-0.4-1.7C191.2,39.4,190.9,39,190.4,38.8z"/>
	<path class="st0" d="M87.7,15.2c-0.8-0.7-1.8-1-2.9-1c-1.1,0-2.2,0.3-3.1,1c-0.4,0.3-0.8,0.7-1,1.2c-0.2,0.5-0.3,1-0.3,1.6h8.4
		C88.8,16.8,88.5,15.9,87.7,15.2z"/>
	<path class="st0" d="M347.8,14.4c-1.2,0-2.4,0.5-3.3,1.3c-0.8,1-1.3,2.2-1.3,3.5c0,1.3,0.5,2.5,1.3,3.5c0.9,0.9,2.1,1.3,3.3,1.3
		c1.2,0,2.4-0.5,3.3-1.3c0.8-1,1.3-2.2,1.3-3.5c0-1.3-0.5-2.5-1.3-3.5C350.2,14.8,349.1,14.4,347.8,14.4z"/>
	<path class="st0" d="M79,43.4c0,0.5,0.2,0.9,0.5,1.2c0.4,0.3,0.9,0.4,1.5,0.4c0.6,0,1.2-0.1,1.6-0.4c0.4-0.3,0.8-0.7,1-1.3v-1.4
		h-2.6C79.7,41.9,79,42.4,79,43.4z"/>
	<path class="st0" d="M151.2,38.3c-0.8,0-1.5,0.3-2,0.8c-0.5,0.5-0.8,1.2-0.9,2h5.8c-0.1-0.8-0.4-1.5-0.9-2
		C152.7,38.6,152,38.3,151.2,38.3z"/>
	<polygon class="st1" points="65,39.6 58.2,39.6 58.2,34.7 57,34.7 57,45.8 58.2,45.8 58.2,40.7 65,40.7 65,45.8 66.1,45.8 
		66.1,34.7 65,34.7 	"/>
	<path class="st1" d="M74.6,37.9c-0.6-0.4-1.3-0.5-2-0.5c-0.8,0-1.4,0.2-2.1,0.5c-0.6,0.4-1.1,0.9-1.4,1.5c-0.3,0.6-0.5,1.4-0.5,2.2
		c0,0.8,0.2,1.5,0.5,2.2c0.4,0.6,0.9,1.2,1.5,1.5c0.7,0.4,1.4,0.5,2.2,0.5c0.7,0,1.2-0.1,1.8-0.3c0.5-0.2,1-0.6,1.4-1l-0.6-0.7
		c-0.3,0.4-0.7,0.6-1.1,0.8c-0.4,0.2-0.9,0.3-1.4,0.3c-0.9,0-1.6-0.3-2.2-0.8c-0.6-0.5-0.9-1.2-1-2.1h6.8l0-0.3
		c0-0.8-0.2-1.6-0.5-2.2C75.7,38.8,75.2,38.3,74.6,37.9z M69.7,41.1c0.1-0.8,0.4-1.5,0.9-2c0.5-0.5,1.2-0.8,2-0.8
		c0.8,0,1.5,0.3,2,0.8c0.5,0.5,0.8,1.2,0.9,2H69.7z"/>
	<path class="st1" d="M81.4,37.4c-0.6,0-1.3,0.1-1.8,0.3c-0.6,0.2-1.1,0.5-1.5,0.8l0.5,0.8c0.3-0.3,0.8-0.5,1.2-0.7
		c0.5-0.2,1-0.3,1.5-0.3c0.8,0,1.3,0.2,1.7,0.6c0.4,0.4,0.6,0.9,0.6,1.6v0.5H81c-1.1,0-1.9,0.2-2.4,0.7c-0.5,0.4-0.7,1-0.7,1.7
		c0,0.7,0.3,1.3,0.8,1.8c0.5,0.4,1.3,0.7,2.2,0.7c0.7,0,1.2-0.1,1.7-0.4c0.5-0.2,0.9-0.6,1.1-1v1.3h1.1v-5.2c0-1.1-0.3-1.9-0.9-2.4
		C83.3,37.6,82.5,37.4,81.4,37.4z M83.6,43.3c-0.2,0.6-0.5,1-1,1.3c-0.4,0.3-1,0.4-1.6,0.4c-0.7,0-1.2-0.1-1.5-0.4
		c-0.4-0.3-0.5-0.7-0.5-1.2c0-1,0.7-1.5,2.1-1.5h2.6V43.3z"/>
	<rect x="87.7" y="34" class="st1" width="1.1" height="11.8"/>
	<path class="st1" d="M95.3,44.8c-0.2,0.1-0.4,0.1-0.7,0.1c-0.5,0-0.8-0.1-1.1-0.4c-0.2-0.3-0.4-0.6-0.4-1.1v-5h2.5v-1h-2.5v-1.8
		h-1.1v1.8h-1.5v1h1.5v5.1c0,0.8,0.2,1.4,0.6,1.8c0.4,0.4,1,0.6,1.8,0.6c0.3,0,0.6,0,0.9-0.1c0.3-0.1,0.6-0.3,0.8-0.4l-0.4-0.8
		C95.7,44.6,95.5,44.7,95.3,44.8z"/>
	<path class="st1" d="M102.4,37.4c-0.7,0-1.3,0.1-1.8,0.4c-0.5,0.3-0.9,0.6-1.2,1.1V34h-1.1v11.8h1.1v-4.4c0-0.9,0.3-1.7,0.8-2.2
		c0.5-0.5,1.2-0.8,2.1-0.8c0.8,0,1.4,0.2,1.8,0.7c0.4,0.5,0.6,1.1,0.6,2v4.7h1.1v-4.8c0-1.2-0.3-2-0.9-2.7
		C104.3,37.7,103.5,37.4,102.4,37.4z"/>
	<path class="st1" d="M117.3,47.1c-0.8,0-1.6-0.4-2.4-1.3c0.9-0.2,1.7-0.5,2.3-1c0.7-0.5,1.2-1.2,1.6-1.9c0.4-0.8,0.6-1.6,0.6-2.6
		c0-1.1-0.2-2-0.7-2.9c-0.5-0.9-1.2-1.5-2.1-2c-0.9-0.5-1.8-0.7-2.9-0.7s-2.1,0.2-2.9,0.7c-0.9,0.5-1.6,1.2-2.1,2
		c-0.5,0.9-0.7,1.8-0.7,2.9c0,1,0.2,2,0.7,2.8c0.5,0.8,1.1,1.5,2,2c0.8,0.5,1.8,0.8,2.8,0.8c0.7,0.8,1.4,1.3,1.9,1.6
		c0.6,0.3,1.2,0.5,1.8,0.5c0.5,0,1-0.1,1.5-0.3c0.5-0.2,0.8-0.5,1.2-0.9l-0.6-0.7C118.8,46.7,118.2,47.1,117.3,47.1z M113.8,44.8
		c-0.9,0-1.6-0.2-2.3-0.6c-0.7-0.4-1.2-1-1.6-1.7c-0.4-0.7-0.6-1.5-0.6-2.4s0.2-1.7,0.6-2.4c0.4-0.7,1-1.3,1.6-1.7
		c0.7-0.4,1.5-0.6,2.3-0.6c0.9,0,1.6,0.2,2.3,0.6c0.7,0.4,1.2,1,1.6,1.7c0.4,0.7,0.6,1.5,0.6,2.4s-0.2,1.7-0.6,2.4
		c-0.4,0.7-0.9,1.3-1.6,1.7C115.4,44.6,114.6,44.8,113.8,44.8z"/>
	<path class="st1" d="M128.1,41.8c0,1-0.2,1.7-0.7,2.2c-0.5,0.5-1.2,0.8-2,0.8c-0.8,0-1.4-0.2-1.8-0.7c-0.4-0.5-0.6-1.1-0.6-2v-4.7
		h-1.1v4.8c0,1.2,0.3,2.1,0.9,2.7c0.6,0.6,1.5,0.9,2.5,0.9c0.7,0,1.2-0.1,1.7-0.4c0.5-0.3,0.9-0.7,1.2-1.2v1.5h1.1v-8.4h-1.1V41.8z"
		/>
	<path class="st1" d="M137.8,37.9c-0.6-0.4-1.3-0.5-2.1-0.5c-0.8,0-1.5,0.2-2.1,0.5c-0.6,0.4-1.1,0.9-1.5,1.5
		c-0.4,0.6-0.5,1.4-0.5,2.2c0,0.8,0.2,1.5,0.5,2.2c0.4,0.6,0.9,1.2,1.5,1.5c0.6,0.4,1.3,0.5,2.1,0.5c0.8,0,1.5-0.2,2.1-0.5
		c0.6-0.4,1.1-0.9,1.5-1.5c0.4-0.6,0.5-1.4,0.5-2.2c0-0.8-0.2-1.5-0.5-2.2C138.9,38.8,138.4,38.3,137.8,37.9z M138.3,43.3
		c-0.3,0.5-0.6,0.9-1.1,1.2c-0.5,0.3-1,0.4-1.6,0.4c-0.6,0-1.1-0.1-1.6-0.4c-0.5-0.3-0.8-0.7-1.1-1.2c-0.3-0.5-0.4-1.1-0.4-1.7
		c0-0.6,0.1-1.2,0.4-1.7c0.3-0.5,0.6-0.9,1.1-1.1c0.5-0.3,1-0.4,1.6-0.4c0.6,0,1.1,0.1,1.6,0.4c0.5,0.3,0.8,0.6,1.1,1.1
		c0.3,0.5,0.4,1.1,0.4,1.7C138.7,42.2,138.5,42.8,138.3,43.3z"/>
	<path class="st1" d="M145.4,44.8c-0.2,0.1-0.4,0.1-0.7,0.1c-0.5,0-0.8-0.1-1.1-0.4c-0.2-0.3-0.4-0.6-0.4-1.1v-5h2.5v-1h-2.5v-1.8
		h-1.1v1.8h-1.5v1h1.5v5.1c0,0.8,0.2,1.4,0.6,1.8c0.4,0.4,1,0.6,1.8,0.6c0.3,0,0.6,0,0.9-0.1c0.3-0.1,0.6-0.3,0.8-0.4l-0.4-0.8
		C145.8,44.6,145.6,44.7,145.4,44.8z"/>
	<path class="st1" d="M153.3,37.9c-0.6-0.4-1.3-0.5-2-0.5c-0.8,0-1.4,0.2-2.1,0.5c-0.6,0.4-1.1,0.9-1.4,1.5
		c-0.3,0.6-0.5,1.4-0.5,2.2c0,0.8,0.2,1.5,0.5,2.2c0.4,0.6,0.9,1.2,1.5,1.5c0.7,0.4,1.4,0.5,2.2,0.5c0.7,0,1.2-0.1,1.8-0.3
		c0.6-0.2,1-0.6,1.4-1l-0.6-0.7c-0.3,0.4-0.7,0.6-1.1,0.8c-0.4,0.2-0.9,0.3-1.4,0.3c-0.9,0-1.6-0.3-2.2-0.8c-0.6-0.5-0.9-1.2-1-2.1
		h6.8l0-0.3c0-0.8-0.2-1.6-0.5-2.2C154.3,38.8,153.9,38.3,153.3,37.9z M148.3,41.1c0.1-0.8,0.4-1.5,0.9-2c0.5-0.5,1.2-0.8,2-0.8
		c0.8,0,1.5,0.3,2,0.8c0.5,0.5,0.8,1.2,0.9,2H148.3z"/>
	<polygon class="st1" points="165.6,39.6 158.8,39.6 158.8,34.7 157.7,34.7 157.7,45.8 158.8,45.8 158.8,40.7 165.6,40.7 
		165.6,45.8 166.8,45.8 166.8,34.7 165.6,34.7 	"/>
	<path class="st1" d="M175.3,37.9c-0.6-0.4-1.3-0.5-2-0.5c-0.8,0-1.4,0.2-2.1,0.5c-0.6,0.4-1.1,0.9-1.4,1.5
		c-0.3,0.6-0.5,1.4-0.5,2.2c0,0.8,0.2,1.5,0.5,2.2c0.4,0.6,0.9,1.2,1.5,1.5c0.7,0.4,1.4,0.5,2.2,0.5c0.7,0,1.2-0.1,1.8-0.3
		c0.5-0.2,1-0.6,1.4-1l-0.6-0.7c-0.3,0.4-0.7,0.6-1.1,0.8c-0.4,0.2-0.9,0.3-1.4,0.3c-0.9,0-1.6-0.3-2.2-0.8c-0.6-0.5-0.9-1.2-1-2.1
		h6.8l0-0.3c0-0.8-0.2-1.6-0.5-2.2C176.4,38.8,175.9,38.3,175.3,37.9z M170.4,41.1c0.1-0.8,0.4-1.5,0.9-2c0.5-0.5,1.2-0.8,2-0.8
		c0.8,0,1.5,0.3,2,0.8c0.5,0.5,0.8,1.2,0.9,2H170.4z"/>
	<path class="st1" d="M180.5,39.1v-1.6h-1.1v8.4h1.1v-4.3c0-1,0.2-1.7,0.7-2.3s1.2-0.8,2-0.8l0.3,0v-1.1c-0.8,0-1.4,0.1-1.9,0.4
		C181.2,38.1,180.8,38.5,180.5,39.1z"/>
	<path class="st1" d="M191,37.9c-0.6-0.4-1.3-0.5-2.1-0.5c-0.8,0-1.5,0.2-2.1,0.5c-0.6,0.4-1.1,0.9-1.5,1.5
		c-0.4,0.6-0.5,1.4-0.5,2.2c0,0.8,0.2,1.5,0.5,2.2c0.4,0.6,0.9,1.2,1.5,1.5c0.6,0.4,1.3,0.5,2.1,0.5c0.8,0,1.5-0.2,2.1-0.5
		c0.6-0.4,1.1-0.9,1.5-1.5c0.4-0.6,0.5-1.4,0.5-2.2c0-0.8-0.2-1.5-0.5-2.2C192.1,38.8,191.6,38.3,191,37.9z M191.5,43.3
		c-0.3,0.5-0.6,0.9-1.1,1.2c-0.5,0.3-1,0.4-1.6,0.4c-0.6,0-1.1-0.1-1.6-0.4c-0.5-0.3-0.8-0.7-1.1-1.2c-0.3-0.5-0.4-1.1-0.4-1.7
		c0-0.6,0.1-1.2,0.4-1.7c0.3-0.5,0.6-0.9,1.1-1.1c0.5-0.3,1-0.4,1.6-0.4c0.6,0,1.1,0.1,1.6,0.4c0.5,0.3,0.8,0.6,1.1,1.1
		c0.3,0.5,0.4,1.1,0.4,1.7C191.9,42.2,191.8,42.8,191.5,43.3z"/>
	<polygon class="st1" points="60.3,18.6 69.9,18.6 69.9,26.5 73.1,26.5 73.1,7.2 69.9,7.2 69.9,15.6 60.3,15.6 60.3,7.2 57,7.2 
		57,26.5 60.3,26.5 	"/>
	<path class="st1" d="M89.2,22.3c-1,1.2-2.4,1.7-4.2,1.7c-1.1,0-2.2-0.3-3.1-1c-0.4-0.3-0.8-0.7-1-1.1c-0.3-0.4-0.4-0.9-0.4-1.5
		h11.5l0-2.1c0-2.1-0.7-3.8-2.1-5c-1.4-1.2-3.2-1.9-5.1-1.8c-1.9,0-3.8,0.7-5.2,2c-1.5,1.4-2.2,3.2-2.2,5.5s0.7,4.2,2.2,5.5
		c0.7,0.7,1.5,1.2,2.4,1.5c0.9,0.4,1.9,0.5,2.8,0.5c2.5,0,4.6-0.8,6.2-2.5L89.2,22.3z M80.7,16.5c0.2-0.5,0.6-0.9,1-1.2
		c0.9-0.7,2-1,3.1-1c1,0,2.1,0.3,2.9,1c0.8,0.7,1.2,1.6,1.2,2.8h-8.4C80.4,17.5,80.5,17,80.7,16.5z"/>
	<path class="st1" d="M101.4,11.6c-2.2,0-4.4,0.7-6.1,2.1l1.4,1.9c1.5-1,2.9-1.5,4.3-1.5c2.2,0,3.3,1,3.3,2.9v0.6h-4
		c-1.8,0-3.3,0.4-4.3,1.1c-1.1,0.7-1.6,1.8-1.6,3.2c0,0.7,0.1,1.3,0.4,1.9c0.3,0.6,0.7,1.1,1.2,1.6c1.1,0.9,2.4,1.3,3.8,1.3
		c2,0,3.7-0.7,4.9-2.2v2h2.8V17c0-1.9-0.5-3.3-1.6-4.1C104.5,12,103.1,11.6,101.4,11.6z M104.2,21c0,0.4-0.1,0.9-0.3,1.3
		c-0.2,0.4-0.5,0.7-0.8,1c-0.7,0.6-1.7,0.8-2.6,0.8c-0.8,0-1.6-0.2-2.3-0.6c-0.3-0.2-0.5-0.4-0.6-0.7c-0.1-0.3-0.2-0.6-0.2-0.9
		c0-1.4,1.1-2.1,3.3-2.1h3.5V21z"/>
	<rect x="111.6" y="6" class="st1" width="3.1" height="20.5"/>
	<path class="st1" d="M124.6,26.7c1.3,0,2.6-0.5,3.6-1.5l-1.3-2.2c-0.2,0.3-0.5,0.5-0.9,0.7c-0.3,0.2-0.7,0.3-1.1,0.3
		c-0.3,0-0.6,0-0.8-0.1c-0.3-0.1-0.5-0.3-0.7-0.5c-0.4-0.5-0.6-1.1-0.6-1.7v-7.5h3.9v-2.5H123V7.2h-3.1v4.6H118v2.5h1.9v7.4
		c0,1.5,0.5,2.8,1.4,3.7c0.4,0.4,1,0.8,1.5,1C123.4,26.6,124,26.7,124.6,26.7z"/>
	<path class="st1" d="M141.2,26.5h3.1v-9c0-1.9-0.5-3.4-1.5-4.4c-1-1-2.4-1.5-4-1.5c-1,0-2,0.3-2.9,0.8c-0.9,0.5-1.6,1.2-2,2.1V6
		h-3.1v20.5h3.1v-8c0-1.4,0.4-2.4,1.2-3.1c0.8-0.7,1.8-1.1,2.8-1.1c2.2,0,3.4,1.4,3.4,4.1V26.5z"/>
	<rect x="156.6" y="7.2" class="st1" width="3.3" height="19.3"/>
	<path class="st1" d="M172.7,11.6c-1,0-2,0.3-2.8,0.8c-0.9,0.5-1.6,1.2-2,2.1v-2.7h-3.1v14.7h3.1v-8c0-1.4,0.4-2.4,1.2-3.1
		c0.8-0.7,1.8-1.1,2.8-1.1c2.2,0,3.4,1.4,3.4,4.1v8.1h3.1v-9c0-1.9-0.5-3.4-1.5-4.4C175.7,12.1,174.3,11.6,172.7,11.6z"/>
	<path class="st1" d="M191.5,19c-0.5-0.3-0.9-0.5-1.4-0.8c-0.4-0.2-0.9-0.3-1.3-0.5c-0.5-0.2-1-0.3-1.6-0.4
		c-0.5-0.1-0.9-0.3-1.4-0.5c-0.2-0.1-0.4-0.2-0.5-0.4c-0.1-0.2-0.2-0.4-0.2-0.6c0-0.2,0-0.5,0.2-0.7c0.1-0.2,0.3-0.4,0.5-0.5
		c0.6-0.3,1.2-0.4,1.8-0.4c1.4,0,2.7,0.4,3.9,1.2l1.2-2.3c-1.4-1-3.1-1.5-4.8-1.5c-1.7,0-3.1,0.4-4.1,1.2c-0.5,0.4-0.9,0.9-1.2,1.4
		c-0.3,0.6-0.4,1.2-0.4,1.8c0,1.9,1.5,3.3,4.6,4.1c0.1,0,0.2,0.1,0.3,0.1c2,0.6,2.9,1.3,2.9,2c0,0.2,0,0.5-0.2,0.7
		c-0.1,0.2-0.3,0.4-0.5,0.5c-0.5,0.3-1.1,0.5-1.7,0.5c-1.6,0-3.3-0.6-5-1.9l-1.5,2.4c0.9,0.7,2,1.3,3.1,1.6c1.1,0.4,2.2,0.6,3.3,0.6
		c1.4,0.1,2.8-0.4,3.9-1.3c0.5-0.4,0.9-0.9,1.2-1.5c0.3-0.6,0.4-1.2,0.4-1.9C193,20.7,192.5,19.7,191.5,19z"/>
	<path class="st1" d="M206.8,19.8c0,1.4-0.4,2.4-1.2,3.1c-0.8,0.7-1.8,1.1-2.8,1.1c-2.2,0-3.4-1.4-3.4-4.1v-8.1h-3.1v9
		c0,1.9,0.5,3.4,1.5,4.4c1,1,2.4,1.5,4,1.5c1,0,2-0.3,2.8-0.8c0.9-0.5,1.6-1.2,2-2.1v2.7h3.1V11.8h-3.1V19.8z"/>
	<path class="st1" d="M219.5,12.5c-0.9,0.6-1.6,1.4-2,2.3v-3h-3.1v14.7h3.1v-6.3c0-1.7,0.4-3,1.2-4c0.8-1,1.9-1.5,3.5-1.5h0.2l0-3.1
		C221.3,11.6,220.3,11.9,219.5,12.5z"/>
	<path class="st1" d="M231.3,11.6c-2.2,0-4.4,0.7-6.1,2.1l1.4,1.9c1.5-1,2.9-1.5,4.3-1.5c2.2,0,3.3,1,3.3,2.9v0.6h-4
		c-1.8,0-3.3,0.4-4.3,1.1c-1.1,0.7-1.6,1.8-1.6,3.2c0,0.7,0.1,1.3,0.4,1.9c0.3,0.6,0.7,1.1,1.2,1.6c1.1,0.9,2.4,1.3,3.8,1.3
		c2,0,3.7-0.7,4.9-2.2v2h2.8V17c0-1.9-0.5-3.3-1.6-4.1C234.4,12,233,11.6,231.3,11.6z M234.1,21c0,0.4-0.1,0.9-0.3,1.3
		c-0.2,0.4-0.5,0.7-0.8,1c-0.7,0.6-1.7,0.8-2.6,0.8c-0.8,0-1.6-0.2-2.3-0.6c-0.3-0.2-0.5-0.4-0.6-0.7c-0.1-0.3-0.2-0.6-0.2-0.9
		c0-1.4,1.1-2.1,3.3-2.1h3.5V21z"/>
	<path class="st1" d="M249.5,11.6c-1,0-2,0.3-2.8,0.8c-0.9,0.5-1.6,1.2-2,2.1v-2.7h-3.1v14.7h3.1v-8c0-1.4,0.4-2.4,1.2-3.1
		c0.8-0.7,1.8-1.1,2.8-1.1c2.3,0,3.4,1.4,3.4,4.1v8.1h3.1v-9c0-1.9-0.5-3.4-1.5-4.4C252.5,12.1,251.1,11.6,249.5,11.6z"/>
	<path class="st1" d="M266.4,23.9c-0.6,0-1.3-0.1-1.9-0.3c-0.6-0.2-1.1-0.6-1.6-1c-0.5-0.5-0.8-1-1.1-1.6c-0.2-0.6-0.4-1.2-0.4-1.9
		c0-0.6,0.1-1.2,0.3-1.8c0.2-0.6,0.6-1.1,1.1-1.5c0.9-0.8,2.1-1.3,3.4-1.3c1.3,0,2.6,0.6,3.8,1.7l1.8-2.2c-0.7-0.7-1.6-1.3-2.6-1.7
		c-1-0.4-2-0.6-3-0.6c-2.1-0.1-4.1,0.7-5.6,2.1c-1.5,1.4-2.3,3.2-2.3,5.5s0.7,4.1,2.2,5.5c1.4,1.4,3.3,2.1,5.3,2.1
		c2.3,0,4.4-0.9,6.2-2.7l-1.8-2C269,23.3,267.7,23.9,266.4,23.9z"/>
	<path class="st1" d="M286.9,13.4c-1.4-1.2-3.2-1.9-5.1-1.8c-1.9,0-3.8,0.7-5.2,2c-1.5,1.4-2.2,3.2-2.2,5.5s0.7,4.2,2.2,5.5
		c0.7,0.7,1.5,1.2,2.4,1.5c0.9,0.4,1.9,0.5,2.8,0.5c2.5,0,4.6-0.8,6.2-2.5l-1.8-1.9c-1,1.2-2.4,1.7-4.2,1.7c-1.1,0-2.2-0.3-3.1-1
		c-0.4-0.3-0.8-0.7-1-1.1c-0.3-0.4-0.4-0.9-0.4-1.5H289v-2.1C289,16.3,288.3,14.6,286.9,13.4z M277.4,18.1c0-0.5,0.1-1.1,0.3-1.6
		s0.6-0.9,1-1.2c0.9-0.7,2-1,3.1-1c1,0,2.1,0.3,2.9,1c0.8,0.7,1.2,1.6,1.2,2.8H277.4z"/>
	<path class="st1" d="M317.5,26.7c-0.6,0.4-1.3,0.5-2,0.6c-0.5,0-0.9-0.1-1.3-0.3c-0.4-0.2-0.8-0.5-1-0.9c1.9-0.7,3.5-2,4.7-3.7
		c1.1-1.7,1.7-3.7,1.7-5.7c0-1.3-0.2-2.6-0.7-3.9c-0.5-1.2-1.3-2.3-2.2-3.2c-2-1.8-4.6-2.9-7.2-2.9c-2.7,0-5.3,1-7.2,2.9
		c-1,0.9-1.7,2-2.2,3.3c-0.5,1.2-0.7,2.5-0.7,3.9c0,1.3,0.2,2.6,0.7,3.9c0.5,1.2,1.3,2.3,2.2,3.3c1,0.9,2.1,1.7,3.3,2.2
		c1.2,0.5,2.6,0.7,3.9,0.7l0.4,0c0.4,1.1,1.2,2.1,2.3,2.7c1,0.6,2.2,1,3.4,1c2.1,0,3.9-0.8,5.5-2.5l-1.9-2.6
		C318.7,25.9,318.2,26.4,317.5,26.7z M312,23.2c-0.8,0.4-1.7,0.5-2.6,0.5c-0.9,0-1.8-0.2-2.6-0.5c-0.8-0.4-1.6-0.9-2.2-1.5
		c-1.3-1.3-2-3.1-2-5c0-1.8,0.7-3.6,2-5c0.6-0.6,1.4-1.2,2.2-1.5c0.8-0.4,1.7-0.5,2.6-0.5c0.9,0,1.8,0.2,2.6,0.5
		c0.8,0.4,1.6,0.9,2.2,1.5c1.3,1.3,2,3.1,2,5c0,1.8-0.7,3.6-2,5C313.5,22.3,312.8,22.8,312,23.2z"/>
	<path class="st1" d="M333.5,19.8c0,1.4-0.4,2.4-1.2,3.1c-0.8,0.7-1.8,1.1-2.8,1.1c-2.3,0-3.4-1.4-3.4-4.1v-8.1H323v9
		c0,1.9,0.5,3.4,1.5,4.4c1,1,2.4,1.5,4,1.5c1,0,2-0.3,2.8-0.8c0.9-0.5,1.6-1.2,2.1-2.1v2.7h3.1V11.8h-3.1V19.8z"/>
	<path class="st1" d="M347.8,11.6c-2.1,0-4,0.8-5.5,2.2c-1.4,1.4-2.2,3.4-2.2,5.4c0,2,0.8,3.9,2.2,5.4c1.5,1.4,3.5,2.2,5.5,2.2
		s4-0.8,5.5-2.2c1.4-1.4,2.2-3.4,2.2-5.4c0-2-0.8-3.9-2.2-5.4C351.9,12.4,349.9,11.6,347.8,11.6z M351.1,22.6
		c-0.9,0.9-2.1,1.3-3.3,1.3c-1.2,0-2.4-0.5-3.3-1.3c-0.8-1-1.3-2.2-1.3-3.5c0-1.3,0.5-2.5,1.3-3.5c0.9-0.9,2.1-1.3,3.3-1.3
		c1.2,0,2.4,0.5,3.3,1.3c0.8,1,1.3,2.2,1.3,3.5C352.5,20.4,352,21.7,351.1,22.6z"/>
	<path class="st1" d="M365.8,23.8c-0.3,0.2-0.7,0.3-1.1,0.3c-0.3,0-0.6,0-0.8-0.1c-0.3-0.1-0.5-0.3-0.7-0.5
		c-0.4-0.5-0.6-1.1-0.6-1.7v-7.5h3.9v-2.5h-3.9V7.2h-3.1v4.6h-1.9v2.5h1.9v7.4c0,1.5,0.5,2.8,1.4,3.7c0.4,0.4,1,0.8,1.5,1
		c0.6,0.2,1.2,0.3,1.8,0.3c1.3,0,2.6-0.5,3.6-1.5l-1.3-2.2C366.5,23.4,366.2,23.6,365.8,23.8z"/>
	<path class="st1" d="M382,13.4c-1.4-1.2-3.2-1.9-5.1-1.8c-1.9,0-3.8,0.7-5.2,2c-1.5,1.4-2.2,3.2-2.2,5.5c0,2.3,0.7,4.2,2.2,5.5
		c0.7,0.7,1.5,1.2,2.4,1.5c0.9,0.4,1.9,0.5,2.8,0.5c2.5,0,4.6-0.8,6.2-2.5l-1.8-1.9c-1,1.2-2.4,1.7-4.2,1.7c-1.1,0-2.2-0.3-3.1-1
		c-0.4-0.3-0.8-0.7-1-1.1c-0.3-0.4-0.4-0.9-0.4-1.5h11.5v-2.1C384.1,16.3,383.4,14.6,382,13.4z M372.6,18.1L372.6,18.1
		c0-0.5,0.1-1.1,0.3-1.6c0.2-0.5,0.6-0.9,1-1.2c0.9-0.7,2-1,3.1-1c1,0,2.1,0.3,2.9,1c0.8,0.7,1.2,1.6,1.2,2.8H372.6z"/>
	<path class="st1" d="M396.5,19c-0.4-0.3-0.9-0.6-1.4-0.8c-0.4-0.2-0.9-0.3-1.3-0.5c-0.5-0.2-1-0.3-1.6-0.4c-0.5-0.1-1-0.3-1.4-0.5
		c-0.2-0.1-0.4-0.2-0.5-0.4c-0.1-0.2-0.2-0.4-0.2-0.6c0-0.2,0-0.5,0.2-0.7c0.1-0.2,0.3-0.4,0.5-0.5c0.6-0.3,1.2-0.4,1.8-0.4
		c1.4,0,2.8,0.4,3.9,1.2l1.2-2.3c-1.4-1-3.1-1.5-4.8-1.5c-1.7,0-3.1,0.4-4.1,1.2c-0.5,0.4-0.9,0.9-1.2,1.4c-0.3,0.6-0.4,1.2-0.4,1.8
		c0,1.9,1.5,3.3,4.6,4.1c0.1,0,0.2,0.1,0.3,0.1c2,0.6,2.9,1.3,2.9,2c0,0.2-0.1,0.5-0.2,0.7c-0.1,0.2-0.3,0.4-0.5,0.5
		c-0.5,0.3-1.1,0.5-1.7,0.5c-1.6,0-3.3-0.6-5-1.9l-1.5,2.4c0.9,0.7,2,1.3,3.1,1.6c1.1,0.4,2.2,0.6,3.3,0.6c1.4,0.1,2.8-0.4,3.9-1.3
		c0.5-0.4,0.9-0.9,1.2-1.5c0.3-0.6,0.4-1.2,0.4-1.9C398,20.7,397.5,19.7,396.5,19z"/>
	<path class="st2" d="M40.3,35.6l-7.6-2.5c-0.8-0.2-1.4-1.2-1.4-2v-1.7c0.5-0.7,1-1.6,1.5-2.5c0.4-0.7,0.9-1.8,1.2-2
		c1.5-1.4,3-3.2,3.5-5.4c0.4-2.1,0-3.1-0.5-4c0-1.7,0-4.7-0.6-6.9c-0.1-2.6-0.6-4.1-1.8-5.5c-0.9-0.9-2.2-1.1-3.2-1.3
		c-0.4-0.1-1-0.2-1.2-0.3c-1.8-1-3.6-1.5-5.9-1.5C19.7,0.2,14,3,12.2,8.1c-0.6,1.5-0.5,4.1-0.5,6.1l0,1.2c-0.4,0.9-0.9,1.9-0.4,4
		c0.5,2.3,2,4,3.5,5.4c0.3,0.3,0.8,1.3,1.2,2.1c0.5,0.9,1,1.8,1.5,2.5v1.7c0,0.8-0.6,1.5-1.4,1.7l-7.6,2.5C-0.3,38,0,39.4,0,44.2
		v1.2h13.8c-0.4-0.7-0.6-1.4-0.7-2.2l0,0v0c-0.1-0.6-0.1-1.2,0-1.7v0l0,0c0.4-3.1,2.8-5.5,5.8-6c0.4-0.1,0.8-0.1,1.2-0.1
		c0.3,0,0.6,0,0.9,0.1c1,0.1,1.9,0.5,2.7,0.9c1.1-0.6,2.4-1,3.6-1c1.2,0,2.3,0.3,3.4,0.9c1.3,0.7,2.3,1.8,3,3.1
		c0.3,0.6,0.5,1.3,0.6,2l0,0v0c0.1,0.6,0.1,1.2,0,1.7V43c-0.1,0.8-0.3,1.7-0.7,2.4h14.9c0-0.6,0-0.7,0-0.7v-0.5
		C48.7,39.4,48.7,38.6,40.3,35.6z"/>
	<path class="st3" d="M32,40.1c-0.4-0.9-1.2-1.7-2.1-2.2c-0.8-0.4-1.6-0.6-2.4-0.6c-1,0-1.9,0.3-2.8,0.8c-0.3,0.2-0.5,0.4-0.7,0.6
		l-0.1,0.1l-0.2-0.2c-0.2-0.2-0.4-0.4-0.7-0.5c-0.6-0.4-1.4-0.7-2.2-0.8c-0.2,0-0.4-0.1-0.6-0.1c-0.3,0-0.6,0-0.9,0.1
		c-2.2,0.4-3.9,2.1-4.2,4.3c0,0.4,0,0.9,0,1.3c0.1,0.9,0.5,1.8,1.1,2.5c0,0,0,0,0,0c0.1,0.1,1.6,1.6,3.7,3.7
		c3.4,3.4,3.5,3.5,3.6,3.5c0.1,0,0.2,0.1,0.3,0.1c0.2,0,0.3,0,0.5-0.1c0,0,1.7-1.6,3.6-3.6c2.4-2.4,3.2-3.2,3.5-3.6
		c0.6-0.8,1.1-1.5,1.2-2.7c0-0.4,0-0.9,0-1.3C32.4,41,32.2,40.5,32,40.1z"/>
</g>
</svg>
