<?xml version="1.0" encoding="utf-8"?>
<!-- Generator: Adobe Illustrator 21.0.0, SVG Export Plug-In . SVG Version: 6.00 Build 0)  -->
<svg version="1.1" id="logo" xmlns="http://www.w3.org/2000/svg" xmlns:xlink="http://www.w3.org/1999/xlink" x="0px" y="0px"
	 viewBox="0 0 291 52.8" style="enable-background:new 0 0 291 52.8;" xml:space="preserve">
<style type="text/css">
	.st0{fill:none;}
	.st1{fill:#545454;}
	.st2{fill:#0A2472;}
	.st3{fill:#C30B55;}
</style>
<path class="st0" d="M151.2,38.3c-0.8,0-1.5,0.3-2,0.8c-0.5,0.5-0.8,1.2-0.9,2h5.8c-0.1-0.8-0.4-1.5-0.9-2
	C152.7,38.6,152,38.3,151.2,38.3z"/>
<path class="st0" d="M173.3,38.3c-0.8,0-1.5,0.3-2,0.8c-0.5,0.5-0.8,1.2-0.9,2h5.8c-0.1-0.8-0.4-1.5-0.9-2
	C174.7,38.6,174.1,38.3,173.3,38.3z"/>
<path class="st0" d="M90.9,15.4c-0.7-0.7-1.6-1-2.7-1c-1,0-1.9,0.3-2.7,1c-0.7,0.7-1.2,1.5-1.3,2.7h7.9C92,17,91.6,16.1,90.9,15.4z"
	/>
<path class="st0" d="M177.2,15.4c-0.7-0.7-1.6-1-2.7-1c-1,0-1.9,0.3-2.7,1c-0.7,0.7-1.1,1.5-1.3,2.7h7.9
	C178.4,17,177.9,16.1,177.2,15.4z"/>
<path class="st0" d="M79,43.4c0,0.5,0.2,0.9,0.5,1.2c0.4,0.3,0.9,0.4,1.5,0.4c0.6,0,1.2-0.1,1.6-0.4c0.4-0.3,0.8-0.7,1-1.3v-1.4
	h-2.6C79.7,41.9,79,42.4,79,43.4z"/>
<path class="st0" d="M143.9,23.9c0.5,0.4,1.1,0.6,2,0.6c0.8,0,1.5-0.2,2.2-0.6c0.6-0.4,1.1-1,1.4-1.8v-1.8H146c-1.9,0-2.8,0.7-2.8,2
	C143.2,23,143.4,23.5,143.9,23.9z"/>
<path class="st0" d="M190.4,38.8c-0.5-0.3-1-0.4-1.6-0.4c-0.6,0-1.1,0.1-1.6,0.4c-0.5,0.3-0.8,0.6-1.1,1.1c-0.3,0.5-0.4,1.1-0.4,1.7
	c0,0.6,0.1,1.2,0.4,1.7c0.3,0.5,0.6,0.9,1.1,1.2c0.5,0.3,1,0.4,1.6,0.4c0.6,0,1.1-0.1,1.6-0.4c0.5-0.3,0.8-0.7,1.1-1.2
	c0.3-0.5,0.4-1.1,0.4-1.7c0-0.6-0.1-1.2-0.4-1.7C191.2,39.4,190.9,39,190.4,38.8z"/>
<path class="st0" d="M117.7,42.6c0.4-0.7,0.6-1.5,0.6-2.4s-0.2-1.7-0.6-2.4c-0.4-0.7-0.9-1.3-1.6-1.7c-0.7-0.4-1.5-0.6-2.3-0.6
	c-0.9,0-1.6,0.2-2.3,0.6c-0.7,0.4-1.2,1-1.6,1.7c-0.4,0.7-0.6,1.5-0.6,2.4s0.2,1.7,0.6,2.4c0.4,0.7,1,1.3,1.6,1.7
	c0.7,0.4,1.5,0.6,2.3,0.6c0.9,0,1.6-0.2,2.3-0.6C116.8,43.8,117.3,43.3,117.7,42.6z"/>
<path class="st0" d="M72.6,38.3c-0.8,0-1.5,0.3-2,0.8c-0.5,0.5-0.8,1.2-0.9,2h5.8c-0.1-0.8-0.4-1.5-0.9-2
	C74,38.6,73.4,38.3,72.6,38.3z"/>
<path class="st0" d="M137.2,38.8c-0.5-0.3-1-0.4-1.6-0.4c-0.6,0-1.1,0.1-1.6,0.4c-0.5,0.3-0.8,0.6-1.1,1.1c-0.3,0.5-0.4,1.1-0.4,1.7
	c0,0.6,0.1,1.2,0.4,1.7c0.3,0.5,0.6,0.9,1.1,1.2c0.5,0.3,1,0.4,1.6,0.4c0.6,0,1.1-0.1,1.6-0.4c0.5-0.3,0.8-0.7,1.1-1.2
	c0.3-0.5,0.4-1.1,0.4-1.7c0-0.6-0.1-1.2-0.4-1.7C138,39.4,137.6,39,137.2,38.8z"/>
<path class="st0" d="M108.8,16.8c-0.4-0.7-0.9-1.3-1.5-1.6c-0.6-0.4-1.3-0.6-2.1-0.6c-0.8,0-1.5,0.2-2.1,0.6
	c-0.6,0.4-1.1,0.9-1.5,1.6c-0.4,0.7-0.6,1.5-0.6,2.5c0,0.9,0.2,1.8,0.6,2.5c0.4,0.7,0.9,1.3,1.5,1.7c0.6,0.4,1.3,0.6,2.1,0.6
	c0.8,0,1.5-0.2,2.1-0.6c0.6-0.4,1.1-1,1.5-1.7c0.4-0.7,0.5-1.5,0.5-2.5C109.3,18.3,109.1,17.5,108.8,16.8z"/>
<path class="st0" d="M209.7,17c0-1.8-0.7-3.6-2-4.9c-0.6-0.6-1.4-1.1-2.2-1.5c-0.8-0.3-1.7-0.5-2.6-0.5s-1.8,0.2-2.6,0.5
	c-0.8,0.3-1.6,0.9-2.2,1.5c-1.3,1.3-2,3.1-2,4.9c0,1.8,0.7,3.6,2,4.9c0.6,0.6,1.4,1.1,2.2,1.5c0.8,0.3,1.7,0.5,2.6,0.5
	s1.8-0.2,2.6-0.5c0.8-0.3,1.6-0.9,2.2-1.5C209,20.6,209.7,18.8,209.7,17z"/>
<path class="st0" d="M269.8,14.6c-1.1,0-2.2,0.3-3,1c-0.4,0.3-0.8,0.7-1,1.2c-0.2,0.5-0.3,1-0.3,1.6h0h8.3c0-1.2-0.4-2.2-1.1-2.8
	C271.8,14.9,270.8,14.5,269.8,14.6z"/>
<path class="st0" d="M240.9,14.7c-1.2,0-2.4,0.5-3.3,1.3c-0.8,0.9-1.3,2.2-1.3,3.4c0,1.3,0.5,2.5,1.3,3.4c0.9,0.8,2.1,1.3,3.3,1.3
	c1.2,0,2.4-0.5,3.3-1.3c0.8-0.9,1.3-2.2,1.3-3.4c0-1.3-0.5-2.5-1.3-3.4C243.3,15.2,242.2,14.7,240.9,14.7z"/>
<polygon class="st1" points="65,39.6 58.2,39.6 58.2,34.7 57,34.7 57,45.8 58.2,45.8 58.2,40.7 65,40.7 65,45.8 66.1,45.8 
	66.1,34.7 65,34.7 "/>
<path class="st1" d="M74.6,37.9c-0.6-0.4-1.3-0.5-2-0.5c-0.8,0-1.4,0.2-2.1,0.5c-0.6,0.4-1.1,0.9-1.4,1.5c-0.3,0.6-0.5,1.4-0.5,2.2
	c0,0.8,0.2,1.5,0.5,2.2c0.4,0.6,0.9,1.2,1.5,1.5c0.7,0.4,1.4,0.5,2.2,0.5c0.7,0,1.2-0.1,1.8-0.3c0.5-0.2,1-0.6,1.4-1l-0.6-0.7
	c-0.3,0.4-0.7,0.6-1.1,0.8c-0.4,0.2-0.9,0.3-1.4,0.3c-0.9,0-1.6-0.3-2.2-0.8c-0.6-0.5-0.9-1.2-1-2.1h6.8l0-0.3
	c0-0.8-0.2-1.6-0.5-2.2C75.7,38.8,75.2,38.3,74.6,37.9z M69.7,41.1c0.1-0.8,0.4-1.5,0.9-2c0.5-0.5,1.2-0.8,2-0.8
	c0.8,0,1.5,0.3,2,0.8c0.5,0.5,0.8,1.2,0.9,2H69.7z"/>
<path class="st1" d="M81.4,37.4c-0.6,0-1.3,0.1-1.8,0.3c-0.6,0.2-1.1,0.5-1.5,0.8l0.5,0.8c0.3-0.3,0.8-0.5,1.2-0.7
	c0.5-0.2,1-0.3,1.5-0.3c0.8,0,1.3,0.2,1.7,0.6c0.4,0.4,0.6,0.9,0.6,1.6v0.5H81c-1.1,0-1.9,0.2-2.4,0.7c-0.5,0.4-0.7,1-0.7,1.7
	c0,0.7,0.3,1.3,0.8,1.8c0.5,0.4,1.3,0.7,2.2,0.7c0.7,0,1.2-0.1,1.7-0.4c0.5-0.2,0.9-0.6,1.1-1v1.3h1.1v-5.2c0-1.1-0.3-1.9-0.9-2.4
	C83.3,37.6,82.5,37.4,81.4,37.4z M83.6,43.3c-0.2,0.6-0.5,1-1,1.3c-0.4,0.3-1,0.4-1.6,0.4c-0.7,0-1.2-0.1-1.5-0.4
	c-0.4-0.3-0.5-0.7-0.5-1.2c0-1,0.7-1.5,2.1-1.5h2.6V43.3z"/>
<rect x="87.7" y="34" class="st1" width="1.1" height="11.8"/>
<path class="st1" d="M95.3,44.8c-0.2,0.1-0.4,0.1-0.7,0.1c-0.5,0-0.8-0.1-1.1-0.4c-0.2-0.3-0.4-0.6-0.4-1.1v-5h2.5v-1h-2.5v-1.8
	h-1.1v1.8h-1.5v1h1.5v5.1c0,0.8,0.2,1.4,0.6,1.8c0.4,0.4,1,0.6,1.8,0.6c0.3,0,0.6,0,0.9-0.1c0.3-0.1,0.6-0.3,0.8-0.4l-0.4-0.8
	C95.7,44.6,95.5,44.7,95.3,44.8z"/>
<path class="st1" d="M102.4,37.4c-0.7,0-1.3,0.1-1.8,0.4c-0.5,0.3-0.9,0.6-1.2,1.1V34h-1.1v11.8h1.1v-4.4c0-0.9,0.3-1.7,0.8-2.2
	c0.5-0.5,1.2-0.8,2.1-0.8c0.8,0,1.4,0.2,1.8,0.7c0.4,0.5,0.6,1.1,0.6,2v4.7h1.1v-4.8c0-1.2-0.3-2-0.9-2.7
	C104.3,37.7,103.5,37.4,102.4,37.4z"/>
<path class="st1" d="M117.3,47.1c-0.8,0-1.6-0.4-2.4-1.3c0.9-0.2,1.7-0.5,2.3-1c0.7-0.5,1.2-1.2,1.6-1.9c0.4-0.8,0.6-1.6,0.6-2.6
	c0-1.1-0.2-2-0.7-2.9c-0.5-0.9-1.2-1.5-2.1-2c-0.9-0.5-1.8-0.7-2.9-0.7s-2.1,0.2-2.9,0.7c-0.9,0.5-1.6,1.2-2.1,2
	c-0.5,0.9-0.7,1.8-0.7,2.9c0,1,0.2,2,0.7,2.8c0.5,0.8,1.1,1.5,2,2c0.8,0.5,1.8,0.8,2.8,0.8c0.7,0.8,1.4,1.3,1.9,1.6
	c0.6,0.3,1.2,0.5,1.8,0.5c0.5,0,1-0.1,1.5-0.3c0.5-0.2,0.8-0.5,1.2-0.9l-0.6-0.7C118.8,46.7,118.2,47.1,117.3,47.1z M113.8,44.8
	c-0.9,0-1.6-0.2-2.3-0.6c-0.7-0.4-1.2-1-1.6-1.7c-0.4-0.7-0.6-1.5-0.6-2.4s0.2-1.7,0.6-2.4c0.4-0.7,1-1.3,1.6-1.7
	c0.7-0.4,1.5-0.6,2.3-0.6c0.9,0,1.6,0.2,2.3,0.6c0.7,0.4,1.2,1,1.6,1.7c0.4,0.7,0.6,1.5,0.6,2.4s-0.2,1.7-0.6,2.4
	c-0.4,0.7-0.9,1.3-1.6,1.7C115.4,44.6,114.6,44.8,113.8,44.8z"/>
<path class="st1" d="M128.1,41.8c0,1-0.2,1.7-0.7,2.2c-0.5,0.5-1.2,0.8-2,0.8c-0.8,0-1.4-0.2-1.8-0.7c-0.4-0.5-0.6-1.1-0.6-2v-4.7
	h-1.1v4.8c0,1.2,0.3,2.1,0.9,2.7c0.6,0.6,1.5,0.9,2.5,0.9c0.7,0,1.2-0.1,1.7-0.4c0.5-0.3,0.9-0.7,1.2-1.2v1.5h1.1v-8.4h-1.1V41.8z"
	/>
<path class="st1" d="M137.8,37.9c-0.6-0.4-1.3-0.5-2.1-0.5c-0.8,0-1.5,0.2-2.1,0.5c-0.6,0.4-1.1,0.9-1.5,1.5
	c-0.4,0.6-0.5,1.4-0.5,2.2c0,0.8,0.2,1.5,0.5,2.2c0.4,0.6,0.9,1.2,1.5,1.5c0.6,0.4,1.3,0.5,2.1,0.5c0.8,0,1.5-0.2,2.1-0.5
	c0.6-0.4,1.1-0.9,1.5-1.5c0.4-0.6,0.5-1.4,0.5-2.2c0-0.8-0.2-1.5-0.5-2.2C138.9,38.8,138.4,38.3,137.8,37.9z M138.3,43.3
	c-0.3,0.5-0.6,0.9-1.1,1.2c-0.5,0.3-1,0.4-1.6,0.4c-0.6,0-1.1-0.1-1.6-0.4c-0.5-0.3-0.8-0.7-1.1-1.2c-0.3-0.5-0.4-1.1-0.4-1.7
	c0-0.6,0.1-1.2,0.4-1.7c0.3-0.5,0.6-0.9,1.1-1.1c0.5-0.3,1-0.4,1.6-0.4c0.6,0,1.1,0.1,1.6,0.4c0.5,0.3,0.8,0.6,1.1,1.1
	c0.3,0.5,0.4,1.1,0.4,1.7C138.7,42.2,138.5,42.8,138.3,43.3z"/>
<path class="st1" d="M145.4,44.8c-0.2,0.1-0.4,0.1-0.7,0.1c-0.5,0-0.8-0.1-1.1-0.4c-0.2-0.3-0.4-0.6-0.4-1.1v-5h2.5v-1h-2.5v-1.8
	h-1.1v1.8h-1.5v1h1.5v5.1c0,0.8,0.2,1.4,0.6,1.8c0.4,0.4,1,0.6,1.8,0.6c0.3,0,0.6,0,0.9-0.1c0.3-0.1,0.6-0.3,0.8-0.4l-0.4-0.8
	C145.8,44.6,145.6,44.7,145.4,44.8z"/>
<path class="st1" d="M153.3,37.9c-0.6-0.4-1.3-0.5-2-0.5c-0.8,0-1.4,0.2-2.1,0.5c-0.6,0.4-1.1,0.9-1.4,1.5c-0.3,0.6-0.5,1.4-0.5,2.2
	c0,0.8,0.2,1.5,0.5,2.2c0.4,0.6,0.9,1.2,1.5,1.5c0.7,0.4,1.4,0.5,2.2,0.5c0.7,0,1.2-0.1,1.8-0.3c0.6-0.2,1-0.6,1.4-1l-0.6-0.7
	c-0.3,0.4-0.7,0.6-1.1,0.8c-0.4,0.2-0.9,0.3-1.4,0.3c-0.9,0-1.6-0.3-2.2-0.8c-0.6-0.5-0.9-1.2-1-2.1h6.8l0-0.3
	c0-0.8-0.2-1.6-0.5-2.2C154.3,38.8,153.9,38.3,153.3,37.9z M148.3,41.1c0.1-0.8,0.4-1.5,0.9-2c0.5-0.5,1.2-0.8,2-0.8
	c0.8,0,1.5,0.3,2,0.8c0.5,0.5,0.8,1.2,0.9,2H148.3z"/>
<polygon class="st1" points="165.6,39.6 158.8,39.6 158.8,34.7 157.7,34.7 157.7,45.8 158.8,45.8 158.8,40.7 165.6,40.7 165.6,45.8 
	166.8,45.8 166.8,34.7 165.6,34.7 "/>
<path class="st1" d="M175.3,37.9c-0.6-0.4-1.3-0.5-2-0.5c-0.8,0-1.4,0.2-2.1,0.5c-0.6,0.4-1.1,0.9-1.4,1.5c-0.3,0.6-0.5,1.4-0.5,2.2
	c0,0.8,0.2,1.5,0.5,2.2c0.4,0.6,0.9,1.2,1.5,1.5c0.7,0.4,1.4,0.5,2.2,0.5c0.7,0,1.2-0.1,1.8-0.3c0.5-0.2,1-0.6,1.4-1l-0.6-0.7
	c-0.3,0.4-0.7,0.6-1.1,0.8c-0.4,0.2-0.9,0.3-1.4,0.3c-0.9,0-1.6-0.3-2.2-0.8c-0.6-0.5-0.9-1.2-1-2.1h6.8l0-0.3
	c0-0.8-0.2-1.6-0.5-2.2C176.4,38.8,175.9,38.3,175.3,37.9z M170.4,41.1c0.1-0.8,0.4-1.5,0.9-2c0.5-0.5,1.2-0.8,2-0.8
	c0.8,0,1.5,0.3,2,0.8c0.5,0.5,0.8,1.2,0.9,2H170.4z"/>
<path class="st1" d="M180.5,39.1v-1.6h-1.1v8.4h1.1v-4.3c0-1,0.2-1.7,0.7-2.3s1.2-0.8,2-0.8l0.3,0v-1.1c-0.8,0-1.4,0.1-1.9,0.4
	C181.2,38.1,180.8,38.5,180.5,39.1z"/>
<path class="st1" d="M191,37.9c-0.6-0.4-1.3-0.5-2.1-0.5c-0.8,0-1.5,0.2-2.1,0.5c-0.6,0.4-1.1,0.9-1.5,1.5c-0.4,0.6-0.5,1.4-0.5,2.2
	c0,0.8,0.2,1.5,0.5,2.2c0.4,0.6,0.9,1.2,1.5,1.5c0.6,0.4,1.3,0.5,2.1,0.5c0.8,0,1.5-0.2,2.1-0.5c0.6-0.4,1.1-0.9,1.5-1.5
	c0.4-0.6,0.5-1.4,0.5-2.2c0-0.8-0.2-1.5-0.5-2.2C192.1,38.8,191.6,38.3,191,37.9z M191.5,43.3c-0.3,0.5-0.6,0.9-1.1,1.2
	c-0.5,0.3-1,0.4-1.6,0.4c-0.6,0-1.1-0.1-1.6-0.4c-0.5-0.3-0.8-0.7-1.1-1.2c-0.3-0.5-0.4-1.1-0.4-1.7c0-0.6,0.1-1.2,0.4-1.7
	c0.3-0.5,0.6-0.9,1.1-1.1c0.5-0.3,1-0.4,1.6-0.4c0.6,0,1.1,0.1,1.6,0.4c0.5,0.3,0.8,0.6,1.1,1.1c0.3,0.5,0.4,1.1,0.4,1.7
	C191.9,42.2,191.8,42.8,191.5,43.3z"/>
<path class="st1" d="M211.1,26.9c-0.6,0.3-1.3,0.5-2,0.5c-0.5,0-0.9-0.1-1.3-0.3c-0.4-0.2-0.8-0.5-1-0.9c1.9-0.7,3.5-2,4.6-3.6
	C212.4,21,213,19,213,17c0-1.3-0.2-2.6-0.7-3.8c-0.5-1.2-1.2-2.3-2.2-3.2c-1.9-1.8-4.5-2.8-7.2-2.8c-2.7,0-5.2,1-7.2,2.8
	c-0.9,0.9-1.7,2-2.2,3.2c-0.5,1.2-0.7,2.5-0.7,3.8c0,1.3,0.2,2.6,0.7,3.8s1.2,2.3,2.2,3.2c0.9,0.9,2.1,1.7,3.3,2.1
	c1.2,0.5,2.5,0.7,3.9,0.7l0.4,0c0.4,1.1,1.2,2.1,2.2,2.7c1,0.6,2.2,1,3.4,1c2,0,3.9-0.8,5.4-2.5l-1.8-2.5
	C212.2,26.1,211.7,26.6,211.1,26.9z M205.5,23.4c-0.8,0.3-1.7,0.5-2.6,0.5s-1.8-0.2-2.6-0.5c-0.8-0.3-1.6-0.9-2.2-1.5
	c-1.3-1.3-2-3.1-2-4.9c0-1.8,0.7-3.6,2-4.9c0.6-0.6,1.4-1.1,2.2-1.5c0.8-0.3,1.7-0.5,2.6-0.5s1.8,0.2,2.6,0.5
	c0.8,0.3,1.6,0.9,2.2,1.5c1.3,1.3,2,3.1,2,4.9c0,1.8-0.7,3.6-2,4.9C207.1,22.5,206.4,23.1,205.5,23.4z"/>
<path class="st1" d="M226.8,20c0,1.3-0.4,2.4-1.2,3.1c-0.8,0.7-1.7,1.1-2.8,1c-2.2,0-3.3-1.3-3.3-4v-8h-3.1v8.9
	c0,1.9,0.5,3.3,1.5,4.3c1,1,2.3,1.5,4,1.5c1,0,2-0.3,2.8-0.8c0.9-0.5,1.5-1.2,2-2.1v2.6h3.1V12.2h-3.1V20z"/>
<path class="st1" d="M241,12c-2,0-4,0.8-5.5,2.2c-1.4,1.4-2.2,3.3-2.2,5.3s0.8,3.9,2.2,5.3c1.5,1.4,3.4,2.2,5.5,2.2
	c2,0,4-0.8,5.5-2.2c1.4-1.4,2.2-3.3,2.2-5.3s-0.8-3.9-2.2-5.3C244.9,12.8,243,12,241,12z M244.2,22.9c-0.9,0.8-2.1,1.3-3.3,1.3
	c-1.2,0-2.4-0.5-3.3-1.3c-0.8-0.9-1.3-2.2-1.3-3.4c0-1.3,0.5-2.5,1.3-3.4c0.9-0.8,2.1-1.3,3.3-1.3c1.2,0,2.4,0.5,3.3,1.3
	c0.8,0.9,1.3,2.2,1.3,3.4C245.5,20.7,245.1,21.9,244.2,22.9z"/>
<path class="st1" d="M258.7,24c-0.3,0.2-0.7,0.3-1,0.3c-0.3,0-0.6,0-0.8-0.1s-0.5-0.3-0.7-0.5c-0.4-0.5-0.6-1-0.5-1.6v-7.4h3.8v-2.5
	h-3.8V7.6h-3.1v4.6h-1.8v2.5h1.8v7.3c0,1.5,0.5,2.7,1.4,3.6c0.4,0.4,1,0.8,1.5,1c0.6,0.2,1.2,0.3,1.8,0.3c1.3,0,2.6-0.5,3.6-1.4
	l-1.3-2.2C259.3,23.6,259.1,23.8,258.7,24z"/>
<path class="st1" d="M274.7,13.8c-1.4-1.2-3.2-1.8-5-1.8c-1.9,0-3.8,0.7-5.1,2c-1.5,1.3-2.2,3.1-2.2,5.4c0,2.3,0.7,4.1,2.1,5.4
	c0.7,0.7,1.5,1.2,2.4,1.5c0.9,0.3,1.8,0.5,2.8,0.5c2.5,0,4.5-0.8,6.1-2.4l-1.7-1.9c-0.9,1.1-2.3,1.7-4.2,1.7c-1.1,0-2.2-0.3-3.1-1
	c-0.4-0.3-0.8-0.7-1-1.1c-0.3-0.4-0.4-0.9-0.4-1.4h11.4v-2.1C276.8,16.6,276.1,14.9,274.7,13.8z M265.4,18.4L265.4,18.4
	c0-0.5,0.1-1.1,0.3-1.6c0.2-0.5,0.6-0.9,1-1.2c0.9-0.7,1.9-1,3-1c1,0,2,0.3,2.8,1c0.8,0.7,1.1,1.6,1.1,2.8H265.4z"/>
<path class="st1" d="M289,19.3c-0.4-0.3-0.9-0.6-1.4-0.8c-0.4-0.2-0.9-0.3-1.3-0.5c-0.5-0.1-1-0.3-1.6-0.4c-0.5-0.1-0.9-0.3-1.4-0.5
	c-0.2-0.1-0.4-0.2-0.5-0.4c-0.1-0.2-0.2-0.4-0.2-0.6c0-0.2,0-0.5,0.2-0.7s0.3-0.4,0.5-0.5c0.5-0.3,1.2-0.4,1.8-0.4
	c1.4,0,2.7,0.4,3.9,1.2l1.1-2.3c-1.4-1-3.1-1.5-4.8-1.5c-1.7,0-3,0.4-4.1,1.2c-0.5,0.4-0.9,0.9-1.2,1.4c-0.3,0.6-0.4,1.2-0.4,1.8
	c0,1.9,1.5,3.3,4.5,4.1c0.1,0,0.2,0.1,0.3,0.1c1.9,0.6,2.9,1.2,2.9,2c0,0.2,0,0.5-0.2,0.7c-0.1,0.2-0.3,0.4-0.4,0.5
	c-0.5,0.3-1.1,0.5-1.6,0.5c-1.6,0-3.2-0.6-4.9-1.9l-1.5,2.4c0.9,0.7,1.9,1.3,3,1.6c1.1,0.4,2.2,0.6,3.3,0.6c1.4,0.1,2.8-0.4,3.8-1.2
	c0.5-0.4,0.9-0.9,1.1-1.5s0.4-1.2,0.4-1.8C290.5,21,290,20,289,19.3z"/>
<polygon class="st1" points="74.2,7 67.1,20.1 59.8,7 57,7 57,26.8 60.2,26.8 60.2,13.9 66.3,24.6 67.8,24.6 73.8,13.7 73.8,26.8 
	77,26.8 77,7 "/>
<path class="st1" d="M84.6,26c1.2,0.7,2.5,1,4.1,1c1.2,0,2.3-0.2,3.2-0.6c1-0.4,1.8-1,2.4-1.8l-1.8-2.2c-1,1.1-2.3,1.6-3.8,1.6
	c-1.2,0-2.2-0.3-3-1c-0.8-0.7-1.3-1.5-1.5-2.7h11c0-0.5,0.1-0.8,0.1-1c0-1.5-0.3-2.9-0.9-4.1c-0.6-1.2-1.4-2.1-2.5-2.7
	c-1.1-0.7-2.3-1-3.6-1c-1.4,0-2.6,0.3-3.7,1c-1.1,0.7-2,1.6-2.6,2.8c-0.6,1.2-0.9,2.5-0.9,4c0,1.5,0.3,2.8,0.9,4
	C82.6,24.4,83.5,25.4,84.6,26z M85.5,15.4c0.7-0.7,1.6-1,2.7-1c1.1,0,2,0.3,2.7,1c0.7,0.7,1.1,1.6,1.3,2.7h-7.9
	C84.4,16.9,84.8,16.1,85.5,15.4z"/>
<path class="st1" d="M109.4,24.9v1.9h3.1v-21h-3.3v7.7c-0.5-0.7-1.2-1.2-2-1.5c-0.8-0.3-1.6-0.5-2.5-0.5c-1.3,0-2.6,0.3-3.6,1
	c-1.1,0.6-1.9,1.5-2.5,2.7c-0.6,1.2-0.9,2.5-0.9,4s0.3,2.9,0.9,4.1c0.6,1.2,1.4,2.1,2.5,2.7c1.1,0.6,2.3,1,3.6,1
	c1,0,1.8-0.2,2.6-0.5C108.2,26.1,108.9,25.6,109.4,24.9z M107.3,23.4c-0.6,0.4-1.3,0.6-2.1,0.6c-0.8,0-1.5-0.2-2.1-0.6
	c-0.6-0.4-1.1-1-1.5-1.7c-0.4-0.7-0.6-1.5-0.6-2.5c0-0.9,0.2-1.8,0.6-2.5c0.4-0.7,0.9-1.3,1.5-1.6c0.6-0.4,1.3-0.6,2.1-0.6
	c0.8,0,1.5,0.2,2.1,0.6c0.6,0.4,1.1,0.9,1.5,1.6c0.4,0.7,0.5,1.5,0.5,2.5c0,0.9-0.2,1.8-0.5,2.5C108.4,22.5,107.9,23,107.3,23.4z"/>
<rect x="117.3" y="11.7" class="st1" width="3.3" height="15.1"/>
<path class="st1" d="M118.9,5c-0.6,0-1.1,0.2-1.5,0.6c-0.4,0.4-0.6,0.9-0.6,1.5c0,0.6,0.2,1.1,0.6,1.5c0.4,0.4,0.9,0.6,1.5,0.6
	c0.6,0,1.1-0.2,1.5-0.6c0.4-0.4,0.6-1,0.6-1.6c0-0.6-0.2-1.1-0.6-1.4C120,5.2,119.5,5,118.9,5z"/>
<path class="st1" d="M127.8,26c1.2,0.7,2.5,1,3.9,1c1.4,0,2.6-0.3,3.6-0.9c1-0.6,1.8-1.5,2.4-2.6l-2.5-1.6c-0.4,0.7-0.9,1.2-1.5,1.6
	c-0.6,0.3-1.2,0.5-2,0.5c-1.2,0-2.3-0.4-3.1-1.3c-0.8-0.9-1.2-2-1.2-3.4c0-1.4,0.4-2.6,1.2-3.4c0.8-0.9,1.8-1.3,3-1.3
	c0.7,0,1.4,0.2,2,0.5c0.6,0.3,1.1,0.9,1.5,1.6l2.5-1.6c-0.5-1.1-1.3-2-2.4-2.6c-1-0.6-2.2-0.9-3.6-0.9c-1.5,0-2.8,0.3-3.9,1
	c-1.1,0.7-2,1.6-2.7,2.7c-0.6,1.2-1,2.5-1,4c0,1.5,0.3,2.8,1,4C125.8,24.4,126.7,25.4,127.8,26z"/>
<path class="st1" d="M142.4,26.4c0.8,0.4,1.7,0.6,2.7,0.6c1,0,1.9-0.2,2.7-0.5c0.7-0.4,1.3-0.9,1.7-1.5v1.8h3.1V18
	c0-2.1-0.5-3.7-1.6-4.8c-1.1-1.1-2.6-1.6-4.7-1.6c-1.2,0-2.2,0.2-3.3,0.5c-1,0.3-1.9,0.8-2.6,1.4l1.3,2.6c0.5-0.5,1.2-0.8,1.9-1.1
	c0.8-0.3,1.5-0.4,2.3-0.4c1.2,0,2,0.3,2.6,0.8c0.6,0.6,0.9,1.4,0.9,2.4V18h-3.6c-2,0-3.5,0.4-4.4,1.2c-0.9,0.8-1.4,1.9-1.4,3.2
	c0,0.9,0.2,1.6,0.6,2.3C141,25.5,141.6,26,142.4,26.4z M146,20.3h3.4v1.8c-0.3,0.8-0.7,1.3-1.4,1.8c-0.6,0.4-1.4,0.6-2.2,0.6
	c-0.8,0-1.5-0.2-2-0.6c-0.5-0.4-0.7-0.9-0.7-1.5C143.2,21,144.1,20.3,146,20.3z"/>
<path class="st1" d="M160.6,19.5c0-1.5,0.4-2.7,1.1-3.4c0.7-0.8,1.7-1.2,3-1.2c0.2,0,0.5,0,0.8,0.1v-3.4c-2.4,0-4,0.8-5,2.4v-2.2
	h-3.1v15.1h3.3V19.5z"/>
<path class="st1" d="M180.7,24.6l-1.8-2.2c-1,1.1-2.3,1.6-3.8,1.6c-1.2,0-2.2-0.3-3-1c-0.8-0.7-1.3-1.5-1.5-2.7h11
	c0-0.5,0.1-0.8,0.1-1c0-1.5-0.3-2.9-0.9-4.1c-0.6-1.2-1.4-2.1-2.5-2.7c-1.1-0.7-2.3-1-3.6-1c-1.4,0-2.6,0.3-3.7,1
	c-1.1,0.7-2,1.6-2.6,2.8c-0.6,1.2-0.9,2.5-0.9,4c0,1.5,0.3,2.8,0.9,4c0.6,1.2,1.6,2.1,2.7,2.7c1.2,0.7,2.5,1,4.1,1
	c1.2,0,2.3-0.2,3.2-0.6C179.3,26,180,25.4,180.7,24.6z M171.9,15.4c0.7-0.7,1.6-1,2.7-1c1.1,0,2,0.3,2.7,1c0.7,0.7,1.1,1.6,1.3,2.7
	h-7.9C170.7,16.9,171.2,16.1,171.9,15.4z"/>
<path class="st2" d="M40.3,35.6l-7.6-2.5c-0.8-0.2-1.4-1.2-1.4-2v-1.7c0.5-0.7,1-1.6,1.5-2.5c0.4-0.7,0.9-1.8,1.2-2
	c1.5-1.4,3-3.2,3.5-5.4c0.4-2.1,0-3.1-0.5-4c0-1.7,0-4.7-0.6-6.9c-0.1-2.6-0.6-4.1-1.8-5.5c-0.9-0.9-2.2-1.1-3.2-1.3
	c-0.4-0.1-1-0.2-1.2-0.3c-1.8-1-3.6-1.5-5.9-1.5c-4.6,0.2-10.2,3-12.1,8.1c-0.6,1.5-0.5,4.1-0.5,6.1l0,1.2c-0.4,0.9-0.9,1.9-0.4,4
	c0.5,2.3,2,4,3.5,5.4c0.3,0.3,0.8,1.3,1.2,2.1c0.5,0.9,1,1.8,1.5,2.5v1.7c0,0.8-0.6,1.5-1.4,1.7l-7.6,2.5C-0.3,38,0,39.4,0,44.2v1.2
	h13.8c-0.4-0.7-0.6-1.4-0.7-2.2l0,0v0c-0.1-0.6-0.1-1.2,0-1.7v0l0,0c0.4-3.1,2.8-5.5,5.8-6c0.4-0.1,0.8-0.1,1.2-0.1
	c0.3,0,0.6,0,0.9,0.1c1,0.1,1.9,0.5,2.7,0.9c1.1-0.6,2.4-1,3.6-1c1.2,0,2.3,0.3,3.4,0.9c1.3,0.7,2.3,1.8,3,3.1
	c0.3,0.6,0.5,1.3,0.6,2l0,0v0c0.1,0.6,0.1,1.2,0,1.7V43c-0.1,0.8-0.3,1.7-0.7,2.4h14.9c0-0.6,0-0.7,0-0.7v-0.5
	C48.7,39.4,48.7,38.6,40.3,35.6z"/>
<path class="st3" d="M32,40.1c-0.4-0.9-1.2-1.7-2.1-2.2c-0.8-0.4-1.6-0.6-2.4-0.6c-1,0-1.9,0.3-2.8,0.8c-0.3,0.2-0.5,0.4-0.7,0.6
	l-0.1,0.1l-0.2-0.2c-0.2-0.2-0.4-0.4-0.7-0.5c-0.6-0.4-1.4-0.7-2.2-0.8c-0.2,0-0.4-0.1-0.6-0.1c-0.3,0-0.6,0-0.9,0.1
	c-2.2,0.4-3.9,2.1-4.2,4.3c0,0.4,0,0.9,0,1.3c0.1,0.9,0.5,1.8,1.1,2.5c0,0,0,0,0,0c0.1,0.1,1.6,1.6,3.7,3.7c3.4,3.4,3.5,3.5,3.6,3.5
	c0.1,0,0.2,0.1,0.3,0.1c0.2,0,0.3,0,0.5-0.1c0,0,1.7-1.6,3.6-3.6c2.4-2.4,3.2-3.2,3.5-3.6c0.6-0.8,1.1-1.5,1.2-2.7
	c0-0.4,0-0.9,0-1.3C32.4,41,32.2,40.5,32,40.1z"/>
</svg>
